<svg width="22" height="21" viewBox="0 0 22 21" fill="none" xmlns="http://www.w3.org/2000/svg">
<path d="M3.94589 14.0049C4.03309 13.7692 4.36639 13.7692 4.45358 14.0049L5.07035 15.6717C5.09777 15.7457 5.15618 15.8042 5.23027 15.8316L6.89707 16.4483C7.13271 16.5355 7.13271 16.8688 6.89707 16.956L5.23027 17.5728C5.15618 17.6002 5.09777 17.6586 5.07035 17.7327L4.45358 19.3995C4.36639 19.6352 4.03309 19.6352 3.94589 19.3995L3.32912 17.7327C3.30171 17.6586 3.2433 17.6002 3.16921 17.5728L1.50241 16.956C1.26677 16.8688 1.26677 16.5355 1.50241 16.4483L3.16921 15.8316C3.2433 15.8042 3.30171 15.7457 3.32912 15.6717L3.94589 14.0049Z" fill="#1DB9FB"/>
<path d="M11.4156 2.7439C11.6481 2.11551 12.5369 2.11551 12.7695 2.7439L14.4142 7.18869C14.4873 7.38626 14.643 7.54202 14.8406 7.61513L19.2854 9.25985C19.9138 9.49238 19.9138 10.3812 19.2854 10.6137L14.8406 12.2584C14.643 12.3315 14.4873 12.4873 14.4142 12.6849L12.7695 17.1296C12.5369 17.758 11.6481 17.758 11.4156 17.1296L9.77089 12.6849C9.69779 12.4873 9.54202 12.3315 9.34445 12.2584L4.89966 10.6137C4.27127 10.3812 4.27127 9.49238 4.89966 9.25985L9.34445 7.61513C9.54202 7.54202 9.69779 7.38626 9.77089 7.18869L11.4156 2.7439Z" fill="#279BF9"/>
</svg>
